<svg xmlns="http://www.w3.org/2000/svg" viewBox="0 0 500 500"><g id="freepik--Floor--inject-211"><path id="freepik--floor--inject-211" d="M79.55,231.2c-94.13,54.35-94.13,142.46,0,196.81s246.75,54.35,340.89,0,94.13-142.46,0-196.81S173.69,176.85,79.55,231.2Z" style="fill:#f5f5f5"></path></g><g id="freepik--Shadows--inject-211"><path id="freepik--Shadow--inject-211" d="M394.89,374.13l-10.43-6a8,8,0,0,0-7.64.19L323,397.21c-10.51-6.13-25-9.93-41.07-9.93-32.09,0-58.1,15.19-58.1,33.92s26,33.92,58.1,33.92S340,439.93,340,421.2c0-6-2.67-11.61-7.34-16.5l62.14-26.28C397,377.29,397,375.37,394.89,374.13Z" style="fill:#e0e0e0"></path><path id="freepik--shadow--inject-211" d="M190,423.91a12.47,12.47,0,0,1-6.17-1.51L83.72,364.62l-15.91,3a6.79,6.79,0,0,1-1.35.13,7.32,7.32,0,0,1-3.66-1L20.9,342.63a7.33,7.33,0,0,1-2.46-10.38l.07-.1,2.66-3.65-4.06-2.34a5.61,5.61,0,0,1,0-10.28l137.17-79.71L336.5,341.37l-140.35,81A12.47,12.47,0,0,1,190,423.91Z" style="fill:#e0e0e0"></path><path id="freepik--shadow--inject-211" d="M370.18,311.93,468,255.48c2.52-1.46,2.52-3.81,0-5.27L337,174.6a10,10,0,0,0-9.12,0l-97.78,56.45c-2.51,1.45-2.51,3.81,0,5.26l131,75.62A10.08,10.08,0,0,0,370.18,311.93Z" style="fill:#e0e0e0"></path><polygon id="freepik--shadow--inject-211" points="419.69 370.74 357.77 334.99 416.49 301.13 478.42 336.88 419.69 370.74" style="fill:#e0e0e0"></polygon><path id="freepik--shadow--inject-211" d="M183.72,443l-9.44-10.73h0l-71.11-41.19h0l-2-1.16-3.26-1.89-.22-.12a.11.11,0,0,1,.07,0l-3.14-1.8v0l-12.83-7.39c-2.47-1.69-6.19,1.75-7.63,5.21h0a9,9,0,0,0-.5,1.61c-.28,1.44,0,2.74,1,3.47l10.46,6L88,396.73l0,0,2.35,1.35.22.12,2.71,1.57h0l.11.08,2.28,1.3L168,443.06h0l13.78,2.72,3.74.75a.57.57,0,0,0,.48-.14.53.53,0,0,0,0-.75Z" style="fill:#e0e0e0"></path></g><g id="freepik--Gears--inject-211"><path id="freepik--Gear--inject-211" d="M87.29,101.81l-5.14,6.26a3,3,0,0,1-2.89.8,28.24,28.24,0,0,0-4.34-.86c-.94-.11-2.06-1.35-2.5-2.84l-1.73-5.78c-.44-1.49-1.51-2.55-2.38-2.37l-8.93,1.85c-.88.19-1.49,1.5-1.38,2.95l.49,6.43c.11,1.44-.44,2.94-1.22,3.38a29.94,29.94,0,0,0-4,2.71,3,3,0,0,1-3.06.14L43.76,111a2.17,2.17,0,0,0-2.79.59l-4.9,7.46a2.47,2.47,0,0,0,.72,3L42,126.6a3.75,3.75,0,0,1,1.12,3.54,30.9,30.9,0,0,0-.74,3.64c-.19,1.27-.93,2.59-1.77,2.87l-7.84,2.56c-.85.27-1.3,1.7-1,3.19l1.3,7c.28,1.49,1.23,2.63,2.13,2.55l8.09-.75c.9-.09,2.15,1,2.91,2.29a25.94,25.94,0,0,0,1.51,2.34,4.05,4.05,0,0,1,.7,3.74l-3.57,7a2.39,2.39,0,0,0,.89,2.94l6.63,4.57a2.19,2.19,0,0,0,2.89-.15l5.15-6.26a3,3,0,0,1,2.88-.8,28.24,28.24,0,0,0,4.34.86c.94.11,2.06,1.35,2.5,2.84l1.73,5.78c.45,1.49,1.51,2.55,2.39,2.36l8.93-1.85c.87-.18,1.49-1.5,1.37-2.94L84,167.47c-.11-1.45.45-2.94,1.22-3.38a29.94,29.94,0,0,0,4-2.71,3,3,0,0,1,3.06-.14l6.48,3.47a2.16,2.16,0,0,0,2.79-.59l4.9-7.47a2.46,2.46,0,0,0-.72-3l-5.18-4.49a3.75,3.75,0,0,1-1.12-3.54,30.94,30.94,0,0,0,.75-3.64c.18-1.27.92-2.59,1.77-2.87l7.84-2.56c.84-.27,1.3-1.7,1-3.19l-1.3-7c-.28-1.49-1.23-2.63-2.13-2.55l-8.09.75c-.9.09-2.15-1-2.91-2.29a25.94,25.94,0,0,0-1.51-2.34,4.07,4.07,0,0,1-.7-3.75l3.57-7a2.39,2.39,0,0,0-.89-2.94l-6.63-4.57A2.19,2.19,0,0,0,87.29,101.81Zm-6.43,21.4a17.82,17.82,0,0,1,4.52,24.38,16.9,16.9,0,0,1-23.76,4.92,17.82,17.82,0,0,1-4.52-24.38A16.89,16.89,0,0,1,80.86,123.21Z" style="fill:#f0f0f0"></path><path id="freepik--gear--inject-211" d="M151.93,82.15l-3.59,4.38a2.09,2.09,0,0,1-2,.56,19.8,19.8,0,0,0-3-.6c-.66-.08-1.44-.95-1.75-2l-1.2-4c-.32-1-1.06-1.77-1.67-1.65l-6.24,1.3c-.61.12-1,1-1,2l.34,4.49A2.68,2.68,0,0,1,131,89a20.63,20.63,0,0,0-2.78,1.89,2.06,2.06,0,0,1-2.13.1l-4.53-2.42a1.5,1.5,0,0,0-2,.41l-3.43,5.21a1.73,1.73,0,0,0,.51,2.13l3.62,3.14a2.61,2.61,0,0,1,.78,2.47,20.43,20.43,0,0,0-.52,2.54,2.56,2.56,0,0,1-1.24,2l-5.47,1.79c-.59.19-.91,1.19-.72,2.23l.91,4.9c.19,1,.86,1.84,1.49,1.78l5.65-.52c.63-.06,1.5.69,2,1.6.33.56.68,1.11,1.06,1.64a2.82,2.82,0,0,1,.48,2.61l-2.49,4.86a1.69,1.69,0,0,0,.62,2.06l4.63,3.18a1.53,1.53,0,0,0,2-.1l3.59-4.37a2.09,2.09,0,0,1,2-.56,19.8,19.8,0,0,0,3,.6c.66.08,1.44,1,1.75,2l1.2,4c.31,1,1.06,1.77,1.67,1.65l6.24-1.3c.61-.12,1-1,1-2.06l-.34-4.49a2.67,2.67,0,0,1,.85-2.36,20.63,20.63,0,0,0,2.78-1.89,2.06,2.06,0,0,1,2.13-.1l4.53,2.42a1.5,1.5,0,0,0,2-.41l3.43-5.21a1.73,1.73,0,0,0-.51-2.13l-3.62-3.14a2.61,2.61,0,0,1-.78-2.47,20.43,20.43,0,0,0,.52-2.54,2.56,2.56,0,0,1,1.24-2l5.47-1.79c.59-.19.91-1.19.72-2.23l-.91-4.9c-.19-1-.86-1.84-1.49-1.78l-5.65.52c-.63.06-1.5-.69-2-1.6-.33-.56-.68-1.11-1.06-1.64a2.82,2.82,0,0,1-.48-2.61l2.49-4.86a1.69,1.69,0,0,0-.62-2.06L154,82.05A1.56,1.56,0,0,0,151.93,82.15Zm-4.49,15a12.45,12.45,0,0,1,3.16,17,11.8,11.8,0,0,1-16.6,3.44,12.46,12.46,0,0,1-3.16-17A11.8,11.8,0,0,1,147.44,97.11Z" style="fill:#f0f0f0"></path></g><g id="freepik--Books--inject-211"><g id="freepik--books--inject-211"><g id="freepik--Book--inject-211"><path d="M457.54,254.28,454,252.36l3.27-.79A2.53,2.53,0,0,1,457.54,254.28Z" style="fill:#9DC8F5"></path><path d="M457.54,254.28,454,252.36l3.27-.79A2.53,2.53,0,0,1,457.54,254.28Z" style="opacity:0.5"></path><path d="M362.38,302.2a8.11,8.11,0,0,0,7.31,0l82-47.35L328.93,185.12l-2.87-1.66-82,46.19c-2,1.17-2,3.07,0,4.22Z" style="fill:#9DC8F5"></path><path d="M393.17,213.9l28.6,16.46,18.51-10.68,21.54,12.44v14.37c0,1.88-2.11,4.56-2.88,4.12a20.77,20.77,0,0,0-4.11,1.46,30.94,30.94,0,0,0-5.95,4.4l-65.71-36.79Z" style="fill:#9DC8F5"></path><path d="M393.17,213.9l28.6,16.46,18.51-10.68,21.54,12.44v14.37c0,1.88-2.11,4.56-2.88,4.12a20.77,20.77,0,0,0-4.11,1.46,30.94,30.94,0,0,0-5.95,4.4l-65.71-36.79Z" style="opacity:0.15"></path><path d="M450,233.85v15.6a2.63,2.63,0,0,1,.26-.16,7.31,7.31,0,0,1,3.5-1.1,3.58,3.58,0,0,1,2.3.55v-18.4Z" style="fill:#37474f"></path><path d="M446,254.8a4.88,4.88,0,0,1,1-2.66,9,9,0,0,1,1-1.15l.35-.33.45-.38.37-.28c.27-.2.55-.38.81-.55V233.92l-4,2.32v-.08Z" style="fill:#e0e0e0"></path><path d="M461.82,246.49c0,1.88-2.11,4.56-2.88,4.12h0l-2.88-1.87V236.88l2.89-5,1.57-.56,1.3.76Z" style="opacity:0.4"></path><path d="M366,282.33v17.8a5,5,0,0,0,2.44-.58l9-5.19L446,254.8V236.16Z" style="fill:#ebebeb"></path><path d="M246.11,215.46V228.9a5.42,5.42,0,0,0,2.43,4.22l106.08,61.24,9,5.19a4.91,4.91,0,0,0,2.43.58V284.34Z" style="fill:#f5f5f5"></path><path d="M328.93,162l122.76,70.88v1.64c0,.92,1.28,1.25,2.86.34s2.87-2,2.87-3.63l.15-1.56-125.08-72.2-.51-.3a1.77,1.77,0,0,0-.21.76v.76C331.77,159.6,330.51,161.06,328.93,162Z" style="fill:#9DC8F5"></path><path d="M328.93,162l122.76,70.88v1.64c0,.92,1.28,1.25,2.86.34s2.87-2,2.87-3.63l.15-1.56-125.08-72.2-.51-.3a1.77,1.77,0,0,0-.21.76v.76C331.77,159.6,330.51,161.06,328.93,162Z" style="opacity:0.1"></path><path d="M369.69,280.22l80.18-46.3c1-.54,1.95-1,2.35-.76l-.53-.29L328.93,162l-1.43-.83c-.79-.46-2.53-.2-3.87.57l-79.57,45.94c-2,1.17-2,3.07,0,4.22l118.32,68.33A8.11,8.11,0,0,0,369.69,280.22Z" style="fill:#9DC8F5"></path><path d="M332,157.16l.51.3,125.08,72.2a.88.88,0,0,1,.27-.33l.42-.24.9-.52,1.11-.65a1.13,1.13,0,0,1,1.42.13.39.39,0,0,1,.14.12,2.58,2.58,0,0,1,.38.52,3.07,3.07,0,0,1,.32.71,6.4,6.4,0,0,1,.26.81c.07.31.12.62.18,1a5.22,5.22,0,0,1,.07.57c0,.16,0,.3,0,.47,0,.35,0,.71,0,1.09v-3.51c0-1.94-1.64-4.46-3.65-5.62L341.14,155.84c-2-1.17-4.94-1.36-6.51-.46l-1.49.87-.06,0c-.1.07-.35.21-.63.36a0,0,0,0,0,0,0A1.3,1.3,0,0,0,332,157.16Z" style="fill:#9DC8F5"></path><path d="M369.69,302.19l4.95-2.87,74.24-42.86a4.82,4.82,0,0,1,1-2.66,10.8,10.8,0,0,1,3.25-2.85,7.31,7.31,0,0,1,3.5-1.1,3.72,3.72,0,0,1,2.31.76,12.87,12.87,0,0,0,1.36-6.14h2.81c0,3.88-1.28,7.77-2.85,8.67l-1.42.83c-.8.47-1.43.49-1.43.06v-.76c0-.84-1.28-.8-2.87.11s-2.86,2.34-2.86,3.18v.76c0,.43-1.09,1.4-2.43,2.18L377.46,301l-7.77,4.48h0a7.56,7.56,0,0,1-3.64.86v-3.25A7.42,7.42,0,0,0,369.69,302.19Z" style="fill:#9DC8F5"></path><path d="M369.69,302.19l4.95-2.87,74.24-42.86a4.82,4.82,0,0,1,1-2.66,10.8,10.8,0,0,1,3.25-2.85,7.31,7.31,0,0,1,3.5-1.1,3.72,3.72,0,0,1,2.31.76,12.87,12.87,0,0,0,1.36-6.14h2.81c0,3.88-1.28,7.77-2.85,8.67l-1.42.83c-.8.47-1.43.49-1.43.06v-.76c0-.84-1.28-.8-2.87.11s-2.86,2.34-2.86,3.18v.76c0,.43-1.09,1.4-2.43,2.18L377.46,301l-7.77,4.48h0a7.56,7.56,0,0,1-3.64.86v-3.25A7.42,7.42,0,0,0,369.69,302.19Z" style="opacity:0.30000000000000004"></path><path d="M369.66,280.23h0l4.95-2.87,57-32.91,18.21-10.52c1.29-.76,2.35-1,2.42-.63a.06.06,0,0,1,0,0v.83c0,.92,1.28.92,2.86,0s2.22-2,2.25-2.87v-.9a1.28,1.28,0,0,1,.42-1.06,4.81,4.81,0,0,1,.42-.24l.9-.52,1.11-.65a1.13,1.13,0,0,1,1.42.13.39.39,0,0,1,.14.12,1.42,1.42,0,0,1,.25.34.75.75,0,0,1,.13.18,3.07,3.07,0,0,1,.32.71,6.4,6.4,0,0,1,.26.81c.07.31.12.62.18,1a5.22,5.22,0,0,1,.07.57c0,.16,0,.3,0,.47,0,.35,0,.71,0,1.09v11.17h-2.81V233.3c0-.29,0-.59,0-.87l-.07-.7a.17.17,0,0,0,0-.07c-.25,2.23-2.39,4.23-4.25,5.29a7.09,7.09,0,0,1-3.43,1.06,3.77,3.77,0,0,1-2.51-.92l-.26.14-.49.29L377.46,279l-7.77,4.49h0l-.05,0a7.6,7.6,0,0,1-3.59.83v-3.25A7.49,7.49,0,0,0,369.66,280.23Z" style="fill:#9DC8F5"></path><path d="M369.66,280.23h0l4.95-2.87,57-32.91,18.21-10.52c1.29-.76,2.35-1,2.42-.63a.06.06,0,0,1,0,0v.83c0,.92,1.28.92,2.86,0s2.22-2,2.25-2.87v-.9a1.28,1.28,0,0,1,.42-1.06,4.81,4.81,0,0,1,.42-.24l.9-.52,1.11-.65a1.13,1.13,0,0,1,1.42.13.39.39,0,0,1,.14.12,1.42,1.42,0,0,1,.25.34.75.75,0,0,1,.13.18,3.07,3.07,0,0,1,.32.71,6.4,6.4,0,0,1,.26.81c.07.31.12.62.18,1a5.22,5.22,0,0,1,.07.57c0,.16,0,.3,0,.47,0,.35,0,.71,0,1.09v11.17h-2.81V233.3c0-.29,0-.59,0-.87l-.07-.7a.17.17,0,0,0,0-.07c-.25,2.23-2.39,4.23-4.25,5.29a7.09,7.09,0,0,1-3.43,1.06,3.77,3.77,0,0,1-2.51-.92l-.26.14-.49.29L377.46,279l-7.77,4.49h0l-.05,0a7.6,7.6,0,0,1-3.59.83v-3.25A7.49,7.49,0,0,0,369.66,280.23Z" style="opacity:0.30000000000000004"></path><path d="M242.56,209.74v3.31a2.51,2.51,0,0,0,1.44,2.08l.06,0L354.62,279l7.76,4.49h0a7.67,7.67,0,0,0,3.64.86v-3.25a7.38,7.38,0,0,1-3.65-.87l-4.94-2.85h0L244.06,211.9A2.51,2.51,0,0,1,242.56,209.74Z" style="fill:#9DC8F5"></path><path d="M242.56,209.74v3.31a2.51,2.51,0,0,0,1.44,2.08l.06,0L354.62,279l7.76,4.49h0a7.67,7.67,0,0,0,3.64.86v-3.25a7.38,7.38,0,0,1-3.65-.87l-4.94-2.85h0L244.06,211.9A2.51,2.51,0,0,1,242.56,209.74Z" style="opacity:0.2"></path><path d="M242.56,231.72V235A2.5,2.5,0,0,0,244,237.1l.06,0L354.62,301l7.76,4.48h0a7.56,7.56,0,0,0,3.64.86v-3.25a7.38,7.38,0,0,1-3.65-.87l-4.94-2.85h0L244.06,233.87A2.51,2.51,0,0,1,242.56,231.72Z" style="fill:#9DC8F5"></path><path d="M242.56,231.72V235A2.5,2.5,0,0,0,244,237.1l.06,0L354.62,301l7.76,4.48h0a7.56,7.56,0,0,0,3.64.86v-3.25a7.38,7.38,0,0,1-3.65-.87l-4.94-2.85h0L244.06,233.87A2.51,2.51,0,0,1,242.56,231.72Z" style="opacity:0.2"></path></g><g id="freepik--book--inject-211"><polygon points="457.57 218.28 361.69 272.89 234.17 199.72 330.05 145.09 457.57 218.28" style="fill:#9DC8F5"></polygon><polygon points="457.57 218.28 361.69 272.89 234.17 199.72 330.05 145.09 457.57 218.28" style="fill:#fff;opacity:0.2"></polygon><path d="M360.81,269.55,454,216.21c-1.95-5.52-1.8-12,.4-19.31l-92.67,52.89S360.27,254.45,360.81,269.55Z" style="fill:#f5f5f5"></path><path d="M365.48,243.75a15.72,15.72,0,0,0-7.15,12.32v14.39c0,4.54,3.2,6.37,7.16,4.11l92.07-52.73v-3.56l-91.1,51.9c-2.37,1.36-4.29.25-4.28-2.47l.06-13.33a9.46,9.46,0,0,1,4.3-7.39l91-51.92v-4Z" style="fill:#9DC8F5"></path><path d="M365.48,243.75a15.72,15.72,0,0,0-7.15,12.32v14.39c0,4.54,3.2,6.37,7.16,4.11l92.07-52.73v-3.56l-91.1,51.9c-2.37,1.36-4.29.25-4.28-2.47l.06-13.33a9.46,9.46,0,0,1,4.3-7.39l91-51.92v-4Z" style="fill:#fff;opacity:0.4"></path><path d="M457.56,191,330,117.86,238,170.58a15.7,15.7,0,0,0-7.16,12.32v14.39c0,2.26.8,3.85,2.1,4.6l127.51,73.18c-1.3-.75-2.09-2.34-2.1-4.6v-14.4a15.71,15.71,0,0,1,7.16-12.32Z" style="fill:#9DC8F5"></path><path d="M457.56,191,330,117.86,238,170.58a15.7,15.7,0,0,0-7.16,12.32v14.39c0,2.26.8,3.85,2.1,4.6l127.51,73.18c-1.3-.75-2.09-2.34-2.1-4.6v-14.4a15.71,15.71,0,0,1,7.16-12.32Z" style="fill:#fff;opacity:0.85"></path><path d="M360.42,249.06a14.53,14.53,0,0,0-2.1,7v14.4c0,2.26.8,3.85,2.1,4.6L232.92,201.89c-1.3-.75-2.1-2.34-2.1-4.6V182.9a14.42,14.42,0,0,1,2.1-7Z" style="fill:#9DC8F5"></path><path d="M360.42,249.06a14.53,14.53,0,0,0-2.1,7v14.4c0,2.26.8,3.85,2.1,4.6L232.92,201.89c-1.3-.75-2.1-2.34-2.1-4.6V182.9a14.42,14.42,0,0,1,2.1-7Z" style="fill:#fff;opacity:0.6000000000000001"></path><path d="M249.73,185.43c-2.32,10.07-2.29,18.77,0,26.16l5.93,3.42c-2.29-7.39-2.32-16.09,0-26.16Z" style="fill:#fff"></path><path d="M334.42,234.33c-2.32,10.07-2.28,18.77,0,26.16l5.92,3.42c-2.28-7.39-2.31-16.09,0-26.16Z" style="fill:#fff"></path></g></g></g><g id="freepik--Folder--inject-211"><g id="freepik--folder--inject-211"><path d="M18.47,321.66c-2.65-1.53-2.66-4,0-5.56l135.82-78.92L331.05,339.23,194.79,417.91a10.65,10.65,0,0,1-9.62,0l-101-58.29-16.9,3.18a4.56,4.56,0,0,1-3.15-.53l-41.9-24.14a4.6,4.6,0,0,1-1.54-6.52l4.43-6.09Z" style="fill:#9DC8F5"></path><path d="M18.47,321.66c-2.65-1.53-2.66-4,0-5.56l135.82-78.92L331.05,339.23,194.79,417.91a10.65,10.65,0,0,1-9.62,0l-101-58.29-16.9,3.18a4.56,4.56,0,0,1-3.15-.53l-41.9-24.14a4.6,4.6,0,0,1-1.54-6.52l4.43-6.09Z" style="opacity:0.15"></path><polygon points="159.86 240.38 325.07 335.79 189.98 413.18 25.72 318.31 159.86 240.38" style="fill:#f0f0f0"></polygon><path d="M331.25,339.35l-123,70.72a10.34,10.34,0,0,1-9.36-.16L32.2,313.67c-2.66-1.53-2.77-3.95-.26-5.41l122.53-71Z" style="fill:#9DC8F5"></path></g></g><g id="freepik--magnifying-glass--inject-211"><g id="freepik--magnifying-glass--inject-211"><path d="M375.62,357.14h0l-40.94,23.52h0l-.06,0h0a4,4,0,0,0-1.76,3.48,12.33,12.33,0,0,0,5.08,9.92,3.92,3.92,0,0,0,3.92.59l43-19.09h0a10.33,10.33,0,1,0-9.23-18.47Z" style="fill:#455a64"></path><path d="M341.83,394.7l43-19.09A10.33,10.33,0,0,0,386.7,358c2.42,2.5,1.77,8.78-5.29,12.48s-33.54,15.68-45.58,21.8a9.53,9.53,0,0,0,2.08,1.86A3.92,3.92,0,0,0,341.83,394.7Z" style="fill:#37474f"></path><path d="M332.83,384.21a12.31,12.31,0,0,0,5.1,9.91,3.93,3.93,0,0,0,3.81.63c.75-.35,3.65-1.63,4.43-2,1.13-.51,1.89-1.79,2-3.69a12.7,12.7,0,0,0-5.25-10.22c-1.59-1-3.07-1.16-4.14-.54-.75.42-4.18,2.4-4.18,2.4A4,4,0,0,0,332.83,384.21Z" style="fill:#9DC8F5"></path><path d="M332.83,384.21c.17-3.55,2.74-4.86,5.72-2.94a12.33,12.33,0,0,1,5.1,9.91c-.18,3.55-2.74,4.87-5.72,2.94A12.31,12.31,0,0,1,332.83,384.21Z" style="fill:#9DC8F5"></path><path d="M332.83,384.21c.17-3.55,2.74-4.86,5.72-2.94a12.33,12.33,0,0,1,5.1,9.91c-.18,3.55-2.74,4.87-5.72,2.94A12.31,12.31,0,0,1,332.83,384.21Z" style="fill:#fff;opacity:0.30000000000000004"></path><path d="M322.13,400.14a8.18,8.18,0,0,1-3.43-6.54,2.62,2.62,0,0,1,1.17-2.34h0L335,383.39h0a2.58,2.58,0,0,1,2.58.37,8.18,8.18,0,0,1,3.43,6.54,2.61,2.61,0,0,1-1.18,2.34h0l-15.11,7.87h0A2.59,2.59,0,0,1,322.13,400.14Z" style="fill:#37474f"></path><path d="M324.73,400.5a2.59,2.59,0,0,1-2.6-.36,7,7,0,0,1-2-2l20.36-10.6a7.14,7.14,0,0,1,.52,2.77,2.61,2.61,0,0,1-1.18,2.34l-15.11,7.87Z" style="fill:#263238"></path><path d="M228.22,403.5v14.67c0,8,5.26,15.92,15.78,22,21.05,12.15,55.17,12.15,76.22,0,10.52-6.08,15.78-14,15.79-22V403.5h0c0-8-5.27-15.93-15.79-22-21.05-12.15-55.17-12.15-76.22,0-10.52,6.07-15.78,14-15.78,22Zm102.57,0c0,6.37-4.68,12.58-13.18,17.49-9.4,5.42-22,8.41-35.5,8.41s-26.1-3-35.5-8.41c-8.5-4.91-13.18-11.12-13.18-17.49s4.68-12.58,13.18-17.49c9.4-5.43,22-8.42,35.5-8.42s26.11,3,35.5,8.42C326.11,390.92,330.79,397.13,330.79,403.5Z" style="fill:#9DC8F5"></path><path d="M228.22,403.5v14.67c0,8,5.26,15.92,15.78,22,21.05,12.15,55.17,12.15,76.22,0,10.52-6.08,15.78-14,15.79-22V403.5h0c0-8-5.27-15.93-15.79-22-21.05-12.15-55.17-12.15-76.22,0-10.52,6.07-15.78,14-15.78,22Zm102.57,0c0,6.37-4.68,12.58-13.18,17.49-9.4,5.42-22,8.41-35.5,8.41s-26.1-3-35.5-8.41c-8.5-4.91-13.18-11.12-13.18-17.49s4.68-12.58,13.18-17.49c9.4-5.43,22-8.42,35.5-8.42s26.11,3,35.5,8.42C326.11,390.92,330.79,397.13,330.79,403.5Z" style="fill:#fff;opacity:0.30000000000000004"></path><path d="M328.26,395.46a14.83,14.83,0,0,1,2.53,8c0,6.37-4.68,12.58-13.18,17.49a58.44,58.44,0,0,1-13.38,5.5v20.05a64.9,64.9,0,0,0,16-6.37c10.52-6.08,15.78-14,15.79-22V403.5a20,20,0,0,0-3.38-10.83Z" style="fill:#9DC8F5;opacity:0.4"></path><path d="M228.22,403.5h0v14.67c0,8,5.26,15.92,15.78,22a60.59,60.59,0,0,0,9.28,4.28l.08-20.21a53.34,53.34,0,0,1-6.75-3.25c-8.5-4.91-13.18-11.12-13.18-17.49a14.16,14.16,0,0,1,1.53-6.26l-4.07-3.41A19.58,19.58,0,0,0,228.22,403.5Z" style="fill:#fff;opacity:0.30000000000000004"></path><path d="M320.22,381.5c-21-12.15-55.17-12.15-76.21,0s-21,31.85,0,44,55.17,12.15,76.21,0S341.27,393.65,320.22,381.5ZM317.62,421c-9.4,5.42-22,8.41-35.5,8.41s-26.11-3-35.51-8.41c-8.49-4.91-13.17-11.12-13.17-17.49s4.67-12.58,13.17-17.49c9.4-5.43,22-8.42,35.51-8.42s26.1,3,35.5,8.42c8.5,4.91,13.18,11.12,13.18,17.49S326.12,416.08,317.62,421Z" style="fill:#9DC8F5"></path><g style="opacity:0.5"><path d="M320.22,381.5c-21-12.15-55.17-12.15-76.21,0s-21,31.85,0,44,55.17,12.15,76.21,0S341.27,393.65,320.22,381.5ZM317.62,421c-9.4,5.42-22,8.41-35.5,8.41s-26.11-3-35.51-8.41c-8.49-4.91-13.17-11.12-13.17-17.49s4.67-12.58,13.17-17.49c9.4-5.43,22-8.42,35.51-8.42s26.1,3,35.5,8.42c8.5,4.91,13.18,11.12,13.18,17.49S326.12,416.08,317.62,421Z" style="fill:#fff"></path></g><path d="M234.47,388.8a23.77,23.77,0,0,0-5.94,10.41,18.88,18.88,0,0,0,1.05,11.93,27.9,27.9,0,0,0,7.25,9.66,42.86,42.86,0,0,0,4.83,3.66c.85.55,1.7,1.09,2.59,1.57l2.69,1.4a25.18,25.18,0,0,0,2.74,1.27c.93.4,1.86.81,2.79,1.18l2.86,1,1.44.49c.48.16,1,.27,1.45.41a88.94,88.94,0,0,0,47.79,0c.48-.14,1-.25,1.45-.41l1.44-.49,2.86-1c.94-.37,1.86-.78,2.79-1.17s1.86-.78,2.75-1.27L320,426c.89-.48,1.74-1,2.59-1.56a44.29,44.29,0,0,0,4.84-3.67,27.87,27.87,0,0,0,7.24-9.66,18.81,18.81,0,0,0,1.05-11.93,23.77,23.77,0,0,0-5.94-10.41,40.58,40.58,0,0,0-9.54-7.3,40.8,40.8,0,0,1,9.39,7.44,23.5,23.5,0,0,1,5.69,10.37,18.35,18.35,0,0,1-1.14,11.62,27.25,27.25,0,0,1-7.18,9.39,46.22,46.22,0,0,1-10,6.47,24.52,24.52,0,0,1-2.71,1.24c-.92.39-1.84.79-2.76,1.16l-2.84,1-1.42.48c-.47.15-1,.26-1.44.4a90.34,90.34,0,0,1-47.37,0c-.48-.13-1-.25-1.44-.4l-1.42-.48-2.84-1c-.92-.37-1.83-.77-2.76-1.16a25.4,25.4,0,0,1-2.71-1.24,46.22,46.22,0,0,1-10-6.47,27.25,27.25,0,0,1-7.18-9.39,18.35,18.35,0,0,1-1.14-11.62,23.5,23.5,0,0,1,5.69-10.37A40.53,40.53,0,0,1,244,381.5,40.78,40.78,0,0,0,234.47,388.8Z" style="fill:#fff;opacity:0.4"></path><path d="M330.8,403.5a14.45,14.45,0,0,1-2.11,7.34c-2.13-3.71-5.9-7.18-11.08-10.16-9.39-5.43-22-8.42-35.5-8.42s-26.1,3-35.49,8.42c-5.18,3-9,6.45-11.09,10.16a14.53,14.53,0,0,1-2.1-7.34c0-6.37,4.68-12.58,13.19-17.49,9.39-5.42,22-8.42,35.49-8.42s26.11,3,35.5,8.42C326.12,390.92,330.8,397.13,330.8,403.5Z" style="fill:#9DC8F5"></path><path d="M330.8,403.5a14.45,14.45,0,0,1-2.11,7.34c-2.13-3.71-5.9-7.18-11.08-10.16-9.39-5.43-22-8.42-35.5-8.42s-26.1,3-35.49,8.42c-5.18,3-9,6.45-11.09,10.16a14.53,14.53,0,0,1-2.1-7.34c0-6.37,4.68-12.58,13.19-17.49,9.39-5.42,22-8.42,35.49-8.42s26.11,3,35.5,8.42C326.12,390.92,330.8,397.13,330.8,403.5Z" style="fill:#fff;opacity:0.30000000000000004"></path><path d="M246.62,386c-8.51,4.91-13.19,11.12-13.19,17.49a14.53,14.53,0,0,0,2.1,7.34c2.14-3.71,5.91-7.18,11.09-10.16a53.5,53.5,0,0,1,6.8-3.28c-2,.8-8.35,2.82-6.06-3.19,2.74-7.14,16.07-14.87,25.87-16.15v0C263.16,379.06,253.91,381.8,246.62,386Z" style="fill:#9DC8F5;opacity:0.4"></path><path d="M317.62,392.65c-9.4-5.43-22-8.41-35.5-8.41s-26.11,3-35.51,8.41c-7,4.05-11.41,9-12.74,14.17,1.33,5.18,5.73,10.12,12.74,14.17,9.4,5.42,22,8.41,35.51,8.41s26.1-3,35.5-8.41c7-4.05,11.41-9,12.74-14.17C329,401.64,324.63,396.7,317.62,392.65Z" style="fill:#fff;opacity:0.7000000000000001"></path></g></g><g id="freepik--Pencil--inject-211"><g id="freepik--pencil--inject-211"><g id="freepik--pencil--inject-211"><path d="M86.18,390.52l1.29.73,1.55.9,80.74,46.74c-.48-1.08-.11-3.24,1-5.31,1.28-2.41,3.25-4.32,4.67-4.39L95.1,382.69l-3-1.7C94,382.19,88.07,391.7,86.18,390.52Z" style="fill:#455a64"></path><path d="M95,382.6,92.09,381c-.81-.5-2.36,1-3.72,2.91-1.81,2.57-3.28,6-2.2,6.65l2.12,1.22.76.42c-1.08-.67.39-4.08,2.2-6.66,1.3-1.86,2.79-3.29,3.62-2.94h0Z" style="fill:#ebebeb"></path><path d="M94.25,382.2c-1.9-1.18-7.82,8.38-5.92,9.56l2.87,1.65c-1.89-1.17,4-10.73,5.92-9.56Z" style="fill:#9DC8F5"></path><path d="M99.86,385.43,97,383.79c-1.85-1.16-7.66,8-6.08,9.47a.73.73,0,0,0,.09.08L93.9,395C92,393.75,98,384.24,99.86,385.43Z" style="fill:#ebebeb"></path><path d="M92.13,381v0l0,0c-.81-.52-2.36,1-3.72,2.9-1.79,2.53-3.25,5.87-2.24,6.61l-12-6.88a2.88,2.88,0,0,1-.94-3.13c.67-3.49,4.76-7.93,7.35-6.16Z" style="fill:#f28f8f"></path><path d="M183.08,439.34c-1,1.34-.89,2-.89,2l-12.43-2.45c-1.24-1.88-.42-4.94,1.28-7.12l.55.31Z" style="fill:#f28f8f"></path><path d="M185.57,442l-3.38-.66s-.16-.66.89-2L186,441.2h0a.48.48,0,0,1,0,.68A.47.47,0,0,1,185.57,442Z" style="fill:#37474f"></path><path d="M175.42,429.19h0l8.53,9.67a1.49,1.49,0,0,0-.88.49l-11.49-7.26-.55-.31A6,6,0,0,1,175.42,429.19Z" style="fill:#ffa8a7"></path><path d="M183.08,439.34a1.17,1.17,0,0,1,.88-.49L186,441.2Z" style="fill:#455a64"></path><path d="M171,431.77,74.42,377.56a8.9,8.9,0,0,0-1.2,2.91,2.88,2.88,0,0,0,.93,3.13l12,6.92,1.29.73,1.55.9,80.74,46.74C168.24,436.55,169.91,433.1,171,431.77Z" style="opacity:0.2"></path></g></g></g><g id="freepik--Notes--inject-211"><g id="freepik--notes--inject-211"><polygon points="372.72 328.3 421.62 300.07 468.64 327.22 419.74 355.45 372.72 328.3" style="fill:#9DC8F5"></polygon><polygon points="372.72 328.3 421.62 300.07 468.64 327.22 419.74 355.45 372.72 328.3" style="fill:#fff;opacity:0.30000000000000004"></polygon><polygon points="372.72 328.3 367.08 325.05 415.98 296.81 421.62 300.07 372.72 328.3" style="fill:#9DC8F5"></polygon><polygon points="372.72 328.3 367.08 325.05 415.98 296.81 421.62 300.07 372.72 328.3" style="fill:#9DC8F5;opacity:0.15"></polygon><polygon points="372.72 328.3 367.08 325.05 415.98 296.81 421.62 300.07 372.72 328.3" style="fill:#fff;opacity:0.30000000000000004"></polygon><polygon points="367.08 325.05 367.08 334.74 419.74 365.15 419.74 355.45 367.08 325.05" style="fill:#9DC8F5"></polygon><polygon points="367.08 325.05 367.08 334.74 419.74 365.15 419.74 355.45 367.08 325.05" style="opacity:0.15"></polygon><polygon points="419.74 355.45 468.64 327.22 468.64 336.91 419.74 365.15 419.74 355.45" style="fill:#9DC8F5"></polygon><path d="M459.52,317.57h0l-37.9-17.5-48.9,28.23,47,21.72,42.32-24.43c2.58-1.5,5.09-4,4.93-7.34C465.52,319,463.15,319.25,459.52,317.57Z" style="fill:#9DC8F5"></path><path d="M459.52,317.57h0l-37.9-17.5-48.9,28.23,47,21.72,42.32-24.43c2.58-1.5,5.09-4,4.93-7.34C465.52,319,463.15,319.25,459.52,317.57Z" style="fill:#fff;opacity:0.5"></path><path d="M443.19,318.1,443,318c-.31-.25-.75.19-.54.39a7.42,7.42,0,0,0-1,.5,4.49,4.49,0,0,1-2.2.55.42.42,0,0,0,0-.1c.25-.91-.45-2.05-1.41-2.78a2.26,2.26,0,0,0-2.56-.32c-1,.59-.35,1.72.25,2.33a4.78,4.78,0,0,0,2.26,1.24,4.92,4.92,0,0,1-1.47.82c-.87.35-1.28.35-1.31,1.08a5.19,5.19,0,0,0,.22,1.15c.15.74,0,1.63-1.59,1.52a5.9,5.9,0,0,1-2-.56c-.31-.13-.63,0-.66.2-.09.61.18,1.24.15,1.85-.08,1.73-2.54,0-3.3-.51-.4-.27-.85,0-.7.3a4.28,4.28,0,0,1,0,3.11c-.13.5-.34,1.47-1.1,1.8a1.8,1.8,0,0,1-2-.35,6.13,6.13,0,0,0,.74-4.59,1.59,1.59,0,0,0-2.25-1.19c-1.8.52-1.6,2-1.25,2.9a9.69,9.69,0,0,0,1.87,2.92c-1,1.71-2.91,3.14-5.3,4.56-.31.18,0,.58.37.35,2.47-1.36,4.24-2.57,5.49-4.4a2.42,2.42,0,0,0,3.11.11,4.46,4.46,0,0,0,1.44-4.36,3.43,3.43,0,0,0,2.89.82c1.37-.44.84-1.85.71-2.77a5.06,5.06,0,0,0,3.46.32c1.6-.62.56-1.84.65-2.71s1.45-.91,2.37-1.56a2.74,2.74,0,0,0,.64-.63,5.14,5.14,0,0,0,4.25-1.57A.2.2,0,0,0,443.19,318.1Zm-19.72,11.48a9.48,9.48,0,0,1-.68-1c-.42-.66-1.56-2.4-.93-3.21a1,1,0,0,1,.27-.22,1.29,1.29,0,0,1,1.07-.08,1.38,1.38,0,0,1,.88,1.31,12.1,12.1,0,0,1-.11,1.34A5.76,5.76,0,0,1,423.47,329.58Zm14.87-10.41a3.81,3.81,0,0,1-2.29-1.08l0,0a1,1,0,0,1-.35-.64.78.78,0,0,1,.73-.74c.71-.07,1.11.44,1.48.93C438,317.71,438.64,319.2,438.34,319.17Zm-18.43,4.95a3.64,3.64,0,0,0,.58-2.38,15.31,15.31,0,0,0,0-1.66,7,7,0,0,0-.32-1c.92.55,1.73,1.27,3.15.84,2-.61,1.55-2.23,1.13-3.42,1.19.64,2.27,1.29,3.12-.12a4.05,4.05,0,0,1,1.59-1.85,9.51,9.51,0,0,0,1.55-1c1.08-1,.44-2.15,1.24-3.17.23-.29-.39-.6-.71-.28a1.68,1.68,0,0,0-.45,1c-.27,1.42-.89,2.16-2.61,3.21-.82.5-.9.89-1.41,1.44-1.21,1.27-1.71.3-2.85-.16-.33-.13-.71.07-.65.27.27.86,1.7,3.26-.76,3.4-1.27.08-1.67-.65-2.74-1s-.51,2.13-.41,2.61a7.58,7.58,0,0,1,.15,1.51,1.56,1.56,0,0,1-1.58,1.93,6.46,6.46,0,0,1-2.59-.2c.14-.33.47-.55.61-.91a2.69,2.69,0,0,0,.14-1.26,4.06,4.06,0,0,0-1.25-2.44,3.66,3.66,0,0,0-3.39-.84c-1.15.51-.55,2.17-.25,2.8a7,7,0,0,0,2.75,2.6,6.39,6.39,0,0,1-2.15.64c-1.22.19-2.19.11-2.57.92-.19.43.18,1.15-.25,1.5-.79.65-1.62,0-2.3,0-.92.1-1.2.26-1.21.87,0,.18.29.47.23.63l.15.23a2,2,0,0,1-1.23-.16c-.17,0-1.08-.39-1.07-.39a.58.58,0,0,0-.62.16A3.87,3.87,0,0,0,403,331c-1.33-1.83-2.24-3.68-4.76-5.2-1.36-.83-3.77-1.87-5.46-.74-2.57,1.71-1.7,6.34,1.81,7.46a.49.49,0,0,0,.41-.11l.29-.28c.24-.23-.14-.53-.47-.26-.66.55-2.27-2.34-2.33-2.54a3.71,3.71,0,0,1,.37-3.29c1.57-2.09,4.95.19,6.24,1.26,1.92,1.6,2.49,3.46,4,5.16.24.27.86.25.93-.07.24-1.14-.57-2.26-.29-3.37.95.44,2.57,1.24,3.18.41.29-.4-.33-.87-.14-1.29.29-.64.2-.25,1.11-.11a3.12,3.12,0,0,0,1,0,1.35,1.35,0,0,0,.84-.51c.76-.87-.11-1.79,1.85-2.3a12.31,12.31,0,0,0,3-.7l.25-.15.58.26C417.05,325.39,419.06,325.25,419.91,324.12Zm-5.4-.55a14.38,14.38,0,0,1-1.36-1,3,3,0,0,1-1.34-2.5,1.12,1.12,0,0,1,1.77-.64,3.6,3.6,0,0,1,1.51,2.54A1.88,1.88,0,0,1,414.51,323.57Z" style="fill:#455a64"></path></g></g><g id="freepik--speech-bubble--inject-211"><g id="freepik--speech-bubble--inject-211"><g id="freepik--speech-bubble--inject-211"><path d="M250.34,126.56l-1.66-5.92c.72-3.4-13.15,4.61-13.87,8l4.47,12a1.84,1.84,0,0,0,.75.87c1,.61,7.6,4.36,7.92,4.56A1.93,1.93,0,0,0,250.8,145l5.79-19.85C257,123.51,253.76,124.61,250.34,126.56Z" style="fill:#9DC8F5"></path><path d="M250.34,126.56l-1.66-5.92c.72-3.4-13.15,4.61-13.87,8l4.47,12a1.84,1.84,0,0,0,.75.87c1,.61,7.6,4.36,7.92,4.56A1.93,1.93,0,0,0,250.8,145l5.79-19.85C257,123.51,253.76,124.61,250.34,126.56Z" style="fill:#fff;opacity:0.2"></path><path d="M266.18,44,213.45,74.4a3.94,3.94,0,0,0-1.79,3.09V140a3.89,3.89,0,0,0,1.8,3.07l6.27,3.56a4,4,0,0,0,3.57,0L276,116.17a4,4,0,0,0,1.78-3.09V50.59A3.9,3.9,0,0,0,276,47.52L269.76,44A4,4,0,0,0,266.18,44Z" style="fill:#9DC8F5"></path><path d="M266.18,44,213.45,74.4a3.94,3.94,0,0,0-1.79,3.09V140a3.89,3.89,0,0,0,1.8,3.07l6.27,3.56a4,4,0,0,0,3.57,0L276,116.17a4,4,0,0,0,1.78-3.09V50.59A3.9,3.9,0,0,0,276,47.52L269.76,44A4,4,0,0,0,266.18,44Z" style="fill:#fff;opacity:0.2"></path><path d="M276,49.56,223.3,80a4,4,0,0,0-1.78,3.09v62.49c0,1.13.8,1.6,1.78,1L243.48,135l3.71,10.28a1.93,1.93,0,0,0,3.61-.19l4.93-17.16L276,116.17a4,4,0,0,0,1.78-3.09V50.59C277.82,49.46,277,49,276,49.56Z" style="fill:#9DC8F5"></path><path d="M276,49.56,223.3,80a4,4,0,0,0-1.78,3.09v62.49c0,1.13.8,1.6,1.78,1L243.48,135l3.71,10.28a1.93,1.93,0,0,0,3.61-.19l4.93-17.16L276,116.17a4,4,0,0,0,1.78-3.09V50.59C277.82,49.46,277,49,276,49.56Z" style="fill:#fff;opacity:0.4"></path><path d="M277.8,50.27c-.14-.9-.88-1.22-1.76-.71L223.31,80a3.62,3.62,0,0,0-1.26,1.34l-9.83-5.65a3.49,3.49,0,0,1,1.23-1.27L266.19,44a4,4,0,0,1,3.57,0L276,47.52A4,4,0,0,1,277.8,50.27Z" style="fill:#fff;opacity:0.7000000000000001"></path></g><path id="freepik--Check--inject-211" d="M262.62,72.34a3.93,3.93,0,0,0-5.12,2.09l-14.77,35.16-3.52-3.43a3.91,3.91,0,0,0-5.45,5.61l7.63,7.42a3.89,3.89,0,0,0,2.72,1.1,3.44,3.44,0,0,0,.78-.08,3.91,3.91,0,0,0,2.83-2.31l17-40.44A3.92,3.92,0,0,0,262.62,72.34Z" style="fill:#fff"></path></g></g></svg>