<?xml version="1.0" encoding="UTF-8" standalone="no"?>
<!-- Created with Inkscape (http://www.inkscape.org/) -->

<svg
   width="13.49375mm"
   height="11.846394mm"
   viewBox="0 0 13.49375 11.846394"
   version="1.1"
   id="svg1"
   xml:space="preserve"
   xmlns="http://www.w3.org/2000/svg"
   xmlns:svg="http://www.w3.org/2000/svg"><defs
     id="defs1" /><g
     id="layer1"
     transform="translate(-86.92441,-77.998342)"><path
       id="rect1-7"
       style="fill:#ffffff;fill-opacity:1;stroke:#262d33;stroke-width:0.264583;stroke-opacity:1"
       d="m 94.729618,78.130632 c -1.325296,0 -2.536098,0.769343 -3.117122,1.943033 -0.300302,-0.198701 -0.656961,-0.305924 -1.02526,-0.305924 -0.980017,0 -1.778463,0.764713 -1.843816,1.72806 -1.000917,0.364595 -1.686718,1.328673 -1.686718,2.406054 0,1.410493 1.144125,2.554883 2.554882,2.554883 h 3.795118 v -2.645833 c 0,-0.14605 0.118533,-0.264583 0.264583,-0.264583 0.14605,0 0.264583,0.118533 0.264583,0.264583 v 2.645833 h 3.993555 c 1.298839,0 2.356447,-1.058136 2.356447,-2.356445 0,-1.202531 -0.906466,-2.19968 -2.083595,-2.339909 0.0026,-0.05159 0.0083,-0.100145 0.0083,-0.148828 0,-1.918492 -1.562433,-3.480924 -3.480925,-3.480924 z m -0.79375,8.326106 h -0.529166 v 2.00918 l -0.868164,-0.876432 c -0.103452,-0.10346 -0.276887,-0.10346 -0.380339,0 -0.103452,0.10345 -0.103452,0.276878 0,0.380338 l 1.513086,1.504818 1.513086,-1.504818 c 0.103452,-0.10346 0.103452,-0.276888 0,-0.380338 -0.103452,-0.10346 -0.276886,-0.10346 -0.380339,0 l -0.868164,0.876432 z" /><path
       d="m 93.366186,85.916212 c 0.02854,-0.01016 0.605724,0 0.605724,0 z m 0.605724,0 h -0.605724 v 2.509113 l -0.993763,-1.094499 c -0.11842,-0.129214 -0.316947,-0.129214 -0.435368,0 -0.118416,0.129188 -0.118416,0.345767 0,0.474966 l 1.731993,1.879259 1.731992,-1.879259 c 0.118417,-0.129199 0.118417,-0.345778 0,-0.474966 -0.118422,-0.129214 -0.316946,-0.129214 -0.435365,0 l -0.993765,1.094499 z"
       id="path1-9-0"
       style="fill:#ffffff;fill-opacity:1;stroke:#ffffff;stroke-width:0.216437;stroke-dasharray:none;stroke-opacity:1" /></g></svg>
