<?xml version="1.0" encoding="UTF-8" standalone="no"?>
<!-- Created with Inkscape (http://www.inkscape.org/) -->

<svg
   width="13.493742mm"
   height="10.560459mm"
   viewBox="0 0 13.493742 10.560459"
   version="1.1"
   id="svg1"
   xml:space="preserve"
   xmlns="http://www.w3.org/2000/svg"
   xmlns:svg="http://www.w3.org/2000/svg"><defs
     id="defs1" /><g
     id="layer1"
     transform="translate(-118.70578,-106.99317)"><path
       d="m 126.51099,107.12546 c -1.32529,0 -2.53609,0.76934 -3.11712,1.94304 -0.3003,-0.19871 -0.65696,-0.30593 -1.02526,-0.30593 -0.98002,0 -1.77846,0.76471 -1.84381,1.72806 -1.00092,0.3646 -1.68672,1.32867 -1.68672,2.40606 0,1.41049 1.14412,2.55488 2.55488,2.55488 h 3.79512 v -2.80293 l -0.86817,0.87643 c -0.10345,0.10345 -0.27688,0.10345 -0.38034,0 -0.10345,-0.10345 -0.10345,-0.27688 0,-0.38034 l 1.51309,-1.50481 1.51309,1.50481 c 0.10345,0.10346 0.10345,0.27689 0,0.38034 -0.0516,0.0516 -0.12244,0.0744 -0.19017,0.0744 -0.0677,0 -0.13858,-0.0228 -0.19017,-0.0744 l -0.86817,-0.87643 v 2.80293 h 3.99356 c 1.29884,0 2.35644,-1.05814 2.35644,-2.35645 0,-1.20253 -0.90646,-2.19968 -2.08359,-2.33991 0.003,-0.0516 0.008,-0.10014 0.008,-0.14882 0,-1.9185 -1.56243,-3.48093 -3.48092,-3.48093 z"
       id="path1-60"
       style="fill:#262d33;fill-opacity:1;stroke:#ffffff;stroke-width:0.264583;stroke-opacity:1" /><path
       d="m 125.15635,115.1192 h 0.60089 z m 0.60089,0 h -0.60089 v 2.00188 c 0,0.15816 0.1346,0.28599 0.30045,0.28599 0.16584,0 0.30295,-0.12785 0.30044,-0.28599 -0.009,-0.5759 -0.0379,-0.95533 0,-2.00188 z"
       id="path1-6-9"
       style="fill:#262d33;fill-opacity:1;stroke:#262d33;stroke-width:0.293124;stroke-opacity:1" /></g></svg>
