<?xml version="1.0" encoding="UTF-8" standalone="no"?>
<!-- Created with Inkscape (http://www.inkscape.org/) -->

<svg
   width="13.493742mm"
   height="10.745985mm"
   viewBox="0 0 13.493742 10.745985"
   version="1.1"
   id="svg1"
   xml:space="preserve"
   xmlns="http://www.w3.org/2000/svg"
   xmlns:svg="http://www.w3.org/2000/svg"><defs
     id="defs1" /><g
     id="layer1"
     transform="translate(-119.11474,-86.520299)"><path
       d="m 126.91994,86.652589 c -1.32529,0 -2.53609,0.769342 -3.11712,1.943034 -0.3003,-0.198702 -0.65696,-0.305925 -1.02526,-0.305925 -0.98002,0 -1.77846,0.764712 -1.84381,1.72806 -1.00092,0.364596 -1.68672,1.328671 -1.68672,2.406055 0,1.410493 1.14412,2.554883 2.55488,2.554883 h 3.79512 v -2.80293 l -0.86817,0.876432 c -0.10345,0.103452 -0.27688,0.103452 -0.38034,0 -0.10345,-0.103452 -0.10345,-0.276886 0,-0.380338 l 1.51309,-1.504818 1.51309,1.504818 c 0.10345,0.103452 0.10345,0.276886 0,0.380338 -0.0516,0.05159 -0.12244,0.07441 -0.19017,0.07441 -0.0677,0 -0.13858,-0.02282 -0.19017,-0.07441 l -0.86817,-0.876432 v 2.80293 h 3.99356 c 1.29884,0 2.35644,-1.058135 2.35644,-2.356446 0,-1.202531 -0.90646,-2.199679 -2.08359,-2.339909 0.003,-0.05159 0.008,-0.100144 0.008,-0.148828 0,-1.918493 -1.56243,-3.480924 -3.48092,-3.480924 z m -0.79375,8.326107 h -0.52916 v 1.852083 c 0,0.146315 0.11853,0.264584 0.26458,0.264584 0.14605,0 0.26458,-0.118269 0.26458,-0.264584 z"
       id="path1"
       style="fill:#ffffff;fill-opacity:1;stroke:#262d33;stroke-width:0.264583;stroke-opacity:1" /><path
       d="m 125.56531,94.831846 h 0.60089 z m 0.60089,0 h -0.60089 v 2.001883 c 0,0.158157 0.1346,0.285993 0.30045,0.285993 0.16584,0 0.30295,-0.127856 0.30044,-0.285993 -0.009,-0.575894 -0.0379,-0.955331 0,-2.001883 z"
       id="path1-6"
       style="fill:#ffffff;fill-opacity:1;stroke:#ffffff;stroke-width:0.293124;stroke-opacity:1" /></g></svg>
