<?xml version="1.0" encoding="UTF-8" standalone="no"?>
<!-- Created with Inkscape (http://www.inkscape.org/) -->

<svg
   width="13.229166mm"
   height="8.3219242mm"
   viewBox="0 0 13.229166 8.3219242"
   version="1.1"
   id="svg1"
   xml:space="preserve"
   xmlns="http://www.w3.org/2000/svg"
   xmlns:svg="http://www.w3.org/2000/svg"><defs
     id="defs1" /><g
     id="layer1"
     transform="translate(-82.311647,-144.38252)"><path
       d="m 93.458017,148.00994 c 0.003,-0.0508 0.004,-0.10001 0.004,-0.14843 0,-1.91849 -1.56078,-3.479 -3.47927,-3.479 -1.3253,0 -2.53551,0.76623 -3.1168,1.93966 -0.30007,-0.19871 -0.65196,-0.30533 -1.02053,-0.30533 -0.97975,0 -1.78461,0.76385 -1.85023,1.7272 -1.00065,0.36406 -1.68354,1.3245 -1.68354,2.40215 0,1.41049 1.14776,2.55825 2.55852,2.55825 h 8.31532 c 1.29858,0 2.35533,-1.05648 2.35533,-2.35505 0,-1.2065 -0.91202,-2.20398 -2.0828,-2.33945 z m -4.00156,3.28904 c 0,0.0529 -0.0296,0.0825 -0.0826,0.0825 h -0.62918 c -0.0529,0 -0.0825,-0.0296 -0.0825,-0.0825 v -0.63765 c 0,-0.0529 0.0296,-0.0743 0.0825,-0.0743 h 0.62918 c 0.0529,0 0.0826,0.0214 0.0826,0.0743 z m 0.003,-1.32292 c 0,0.0529 -0.0214,0.0825 -0.0744,0.0825 h -0.64187 c -0.0529,0 -0.0825,-0.0296 -0.0825,-0.0825 v -3.0099 c 0,-0.0529 0.0296,-0.0825 0.0825,-0.0825 h 0.64187 c 0.0529,0 0.0744,0.0296 0.0744,0.0825 z"
       id="path1-9-9"
       style="fill:#ffffff;fill-opacity:1;stroke:#ffffff;stroke-width:0;stroke-dasharray:none;stroke-opacity:1" /></g></svg>
