<?xml version="1.0" encoding="UTF-8" standalone="no"?>
<!-- Created with Inkscape (http://www.inkscape.org/) -->

<svg
   width="13.494161mm"
   height="11.663371mm"
   viewBox="0 0 13.494161 11.663371"
   version="1.1"
   id="svg1"
   xml:space="preserve"
   xmlns="http://www.w3.org/2000/svg"
   xmlns:svg="http://www.w3.org/2000/svg"><defs
     id="defs1" /><g
     id="layer1"
     transform="translate(-86.923998,-95.818448)"><path
       d="m 94.729421,95.950945 c -1.325303,0 -2.536102,0.76934 -3.117127,1.94303 -0.300302,-0.1987 -0.65696,-0.30592 -1.02526,-0.30592 -0.980017,0 -1.778463,0.76471 -1.843816,1.72806 -1.000918,0.36459 -1.686718,1.328675 -1.686718,2.406055 0,1.41049 1.144124,2.55488 2.554883,2.55488 H 93.4065 v -2.64583 c 0,-0.14605 0.118533,-0.26458 0.264583,-0.26458 0.14605,0 0.264583,0.11853 0.264583,0.26458 v 2.64583 h 3.993551 c 1.29884,0 2.356443,-1.05813 2.356443,-2.35644 0,-1.20253 -0.906463,-2.199685 -2.083593,-2.339915 0.003,-0.0516 0.008,-0.10015 0.008,-0.14883 0,-1.91849 -1.562426,-3.48092 -3.480916,-3.48092 z m -0.793755,8.326105 H 93.4065 v 2.00918 l -0.868164,-0.87643 c -0.103452,-0.10346 -0.276887,-0.10346 -0.380339,0 -0.103452,0.10345 -0.103452,0.27688 0,0.38034 l 1.513086,1.50481 1.513088,-1.50481 c 0.10345,-0.10346 0.10345,-0.27689 0,-0.38034 -0.10345,-0.10346 -0.27689,-0.10346 -0.38034,0 l -0.868165,0.87643 z"
       id="path1-9-8"
       style="fill:#262d33;fill-opacity:1;stroke:#ffffff;stroke-width:0.265;stroke-dasharray:none;stroke-opacity:1" /><path
       d="m 93.379922,103.86063 c 0.02631,-0.009 0.55837,0 0.55837,0 z m 0.55837,0 h -0.55837 v 2.26655 l -0.916076,-0.98869 c -0.109161,-0.11672 -0.292169,-0.11672 -0.40133,0 -0.10916,0.1167 -0.10916,0.31234 0,0.42905 l 1.596591,1.69758 1.59659,-1.69758 c 0.109161,-0.11671 0.109161,-0.31235 0,-0.42905 -0.109162,-0.11672 -0.292167,-0.11672 -0.401329,0 l -0.916076,0.98869 z"
       id="path1-9-0-1"
       style="fill:#262d33;fill-opacity:1;stroke:#262d33;stroke-width:0.289124;stroke-dasharray:none;stroke-opacity:1" /></g></svg>
