<?xml version="1.0" encoding="UTF-8" standalone="no"?>
<!-- Created with Inkscape (http://www.inkscape.org/) -->

<svg
   width="597.01282mm"
   height="116.29484mm"
   viewBox="0 0 597.01282 116.29484"
   version="1.1"
   id="svg1"
   xml:space="preserve"
   xmlns="http://www.w3.org/2000/svg"
   xmlns:svg="http://www.w3.org/2000/svg"><defs
     id="defs1" /><g
     id="layer1"
     transform="translate(-938.38656,-454.1505)"><path
       d="m 1135.3998,549.2638 v -32.67612 q 0,-6.47052 3.1275,-11.86262 3.1274,-5.3921 8.9508,-8.51952 5.9314,-3.23526 14.2352,-3.23526 3.9901,0 7.3333,0.97058 3.4509,0.86273 6.3626,2.5882 2.9118,1.72548 5.0686,4.098 h 0.1078 q 2.2647,-2.37252 5.1765,-4.098 2.9117,-1.72547 6.3626,-2.5882 3.451,-0.97058 7.4411,-0.97058 8.3039,0 14.1273,3.23526 5.9313,3.12742 9.0588,8.51952 3.1274,5.3921 3.1274,11.86262 v 32.67612 h -14.7744 v -32.67612 q 0,-3.01958 -1.6176,-5.49995 -1.5098,-2.48036 -4.098,-3.99015 -2.5882,-1.50979 -5.8235,-1.50979 -3.1274,0 -5.8234,1.50979 -2.5882,1.50979 -4.2059,3.99015 -1.5098,2.48037 -1.5098,5.49995 v 32.67612 h -14.7743 v -32.67612 q 0,-3.01958 -1.6176,-5.49995 -1.5098,-2.48036 -4.098,-3.99015 -2.5882,-1.50979 -5.8235,-1.50979 -3.1274,0 -5.8235,1.50979 -2.5882,1.50979 -4.2058,3.99015 -1.5098,2.48037 -1.5098,5.49995 v 32.67612 z m 133.8993,0 q -9.3823,0 -16.392,-3.55878 -6.9019,-3.66663 -10.7842,-9.92147 -3.7744,-6.25483 -3.7744,-14.01946 0,-8.7352 3.5587,-15.20572 3.5588,-6.47052 9.7058,-10.02931 6.147,-3.55878 13.9116,-3.55878 9.2744,0 14.99,3.88231 5.8235,3.88231 8.5196,10.46067 2.696,6.47052 2.696,14.45083 0,1.07842 -0.1078,2.58821 -0.1079,1.40195 -0.3236,2.15684 h -37.2055 q 0.8628,3.3431 2.9118,5.60778 2.1568,2.26469 5.2842,3.45095 3.2353,1.07842 7.2255,1.07842 h 15.3135 v 12.61751 z m -15.3136,-32.67612 h 22.9704 q -0.2157,-2.049 -0.7549,-3.77447 -0.5393,-1.83332 -1.5098,-3.23526 -0.9706,-1.40195 -2.2647,-2.37253 -1.2941,-0.97058 -3.0196,-1.50979 -1.7255,-0.53921 -3.7745,-0.53921 -2.696,0 -4.8528,0.97058 -2.049,0.97058 -3.451,2.58821 -1.4019,1.61763 -2.2647,3.66663 -0.7549,2.049 -1.0784,4.20584 z m 49.8904,32.67612 v -32.67612 q 0,-6.47052 3.1275,-11.86262 3.1274,-5.3921 8.9508,-8.51952 5.9314,-3.23526 14.2352,-3.23526 3.9901,0 7.3332,0.97058 3.451,0.86273 6.3627,2.5882 2.9118,1.72548 5.0686,4.098 h 0.1078 q 2.2647,-2.37252 5.1765,-4.098 2.9117,-1.72547 6.3626,-2.5882 3.451,-0.97058 7.4411,-0.97058 8.3039,0 14.1273,3.23526 5.9313,3.12742 9.0588,8.51952 3.1274,5.3921 3.1274,11.86262 v 32.67612 h -14.7744 v -32.67612 q 0,-3.01958 -1.6176,-5.49995 -1.5098,-2.48036 -4.098,-3.99015 -2.5882,-1.50979 -5.8235,-1.50979 -3.1274,0 -5.8234,1.50979 -2.5882,1.50979 -4.2059,3.99015 -1.5098,2.48037 -1.5098,5.49995 v 32.67612 h -14.7743 v -32.67612 q 0,-3.01958 -1.6176,-5.49995 -1.5098,-2.48036 -4.098,-3.99015 -2.5882,-1.50979 -5.8235,-1.50979 -3.1274,0 -5.8235,1.50979 -2.5882,1.50979 -4.2058,3.99015 -1.5098,2.48037 -1.5098,5.49995 v 32.67612 z m 132.6053,1.29411 q -8.5196,0 -15.2058,-3.77447 -6.6862,-3.88232 -10.5685,-10.35284 -3.8823,-6.57836 -3.8823,-14.66651 0,-8.08815 3.8823,-14.55867 3.8823,-6.57836 10.5685,-10.35283 6.6862,-3.88231 15.2058,-3.88231 8.5195,0 15.2057,3.88231 6.6862,3.77447 10.5685,10.35283 3.8823,6.47052 3.8823,14.55867 0,8.08815 -3.8823,14.66651 -3.8823,6.47052 -10.5685,10.35284 -6.6862,3.77447 -15.2057,3.77447 z m 0,-12.61752 q 4.5293,0 7.7646,-2.15684 3.3431,-2.15684 5.0686,-5.82347 1.8333,-3.66662 1.8333,-8.19599 0,-4.52936 -1.8333,-8.19599 -1.7255,-3.66663 -5.0686,-5.82347 -3.2353,-2.15684 -7.7646,-2.15684 -4.5294,0 -7.8725,2.15684 -3.2353,2.15684 -5.0686,5.82347 -1.7255,3.66663 -1.7255,8.19599 0,4.52937 1.7255,8.19599 1.8333,3.66663 5.0686,5.82347 3.3431,2.15684 7.8725,2.15684 z m 41.5866,11.32341 v -39.36233 q 0,-7.33325 4.098,-11.43125 4.2059,-4.20584 11.5391,-4.20584 h 15.2058 v 12.61752 h -12.6176 q -1.4019,0 -2.4803,0.97057 -0.9706,0.97058 -0.9706,2.48037 v 38.93096 z m 40.6161,0 v -54.99942 h 14.8822 v 54.99942 z m 7.4411,-61.57778 q -3.7744,0 -6.5783,-2.69605 -2.6961,-2.80389 -2.6961,-6.57836 0,-3.77447 2.6961,-6.47052 2.8039,-2.8039 6.5783,-2.8039 3.7745,0 6.4705,2.8039 2.8039,2.69605 2.8039,6.47052 0,3.77447 -2.8039,6.57836 -2.696,2.69605 -6.4705,2.69605 z"
       id="text1-4"
       style="font-weight:600;font-size:107.842px;font-family:MuseoModerno;-inkscape-font-specification:'MuseoModerno Semi-Bold';letter-spacing:1.68504px;fill:#ffffff;fill-opacity:1;stroke-width:0.561676"
       aria-label="memori" /><path
       style="fill:#ffffff;fill-opacity:1"
       d="m 1011.6227,569.46748 c 3.0471,-1.21262 2.7495,0.3798 2.8689,-15.34704 0.1047,-13.78895 0.1047,-13.78895 0.6282,-12.96209 0.288,0.45478 0.6109,0.82686 0.7177,0.82686 0.263,0 5.6234,-1.91721 8.882,-3.17675 5.5567,-2.1478 19.7494,-7.40657 19.9894,-7.40657 0.15,0 0.2513,2.07821 0.2513,5.15937 0,2.83765 0.089,5.14982 0.1984,5.13816 3.1787,-0.33979 4.4409,-8.40093 2.0487,-13.08343 -0.5227,-1.02292 -1.3989,-3.52315 -1.9473,-5.55606 -1.2108,-4.48867 -0.5896,-4.31346 -6.95,-1.96032 -25.7596,9.53006 -28.1629,10.71208 -29.9702,14.74024 -0.5046,1.12487 -0.5046,1.12487 -1.2381,-0.1593 -2.3155,-4.05425 -4.527,-5.32629 -17.65337,-10.1541 -4.75729,-1.7497 -10.72347,-3.94528 -13.25818,-4.87905 -2.5347,-0.93378 -4.69106,-1.60469 -4.79191,-1.49091 -0.10084,0.11377 -0.50108,1.51655 -0.88942,3.11728 -0.80847,3.33256 -1.5327,5.29874 -2.59337,7.04072 -0.74279,1.21988 -0.74279,1.21988 -0.73873,6.08541 0.005,5.52891 -0.0557,5.32449 1.72255,5.84143 1.95855,0.56937 1.88118,0.78187 1.81007,-4.97141 -0.0589,-4.76772 -0.0287,-5.16197 0.38248,-4.9922 1.26479,0.52218 26.04511,10.03417 27.2208,10.44878 1.37432,0.48466 1.37432,0.48466 1.98438,-0.48821 0.61,-0.97287 0.61,-0.97287 0.6785,13.1106 0.078,16.08288 -0.3515,14.195 3.5386,15.5478 2.4119,0.83876 4.1925,0.73124 7.1086,-0.42921 z m -24.28835,-6.57105 c 8.92013,-3.35118 7.13915,-17.47163 -2.20365,-17.47163 -1.26228,0 -1.26228,0 -0.87891,-0.91755 0.63818,-1.52738 0.62635,-1.53501 -2.20513,-1.42128 -3.23755,0.13004 -4.9747,0.8927 -7.21423,3.16727 -1.81434,1.84273 -0.12189,2.18883 -13.4806,-2.75671 -5.31151,-1.96638 -10.3419,-3.71461 -11.17865,-3.88495 -1.52135,-0.30972 -1.52135,-0.30972 -1.52135,-8.87268 0,-5.21645 -0.10616,-8.84219 -0.27163,-9.27742 -0.72511,-1.90718 3.00224,0.10677 4.24038,2.29115 0.63295,1.11667 0.66511,1.38933 0.74606,6.32634 0.0465,2.83766 0.16789,5.24503 0.2697,5.34971 0.20343,0.20917 8.75884,3.38153 9.11951,3.38153 0.12322,0 0.19393,-2.29195 0.15714,-5.09322 -0.0506,-3.85064 0.0194,-5.25351 0.28663,-5.75022 0.19444,-0.36135 1.23898,-2.98073 2.3212,-5.82084 1.08222,-2.84011 2.83089,-7.42602 3.88594,-10.19091 2.34513,-6.14573 3.3598,-5.42396 -7.62508,-5.42396 -20.02261,0 -23.59206,3.58339 -23.387,23.47833 0.16718,16.2192 1.61462,18.19467 17.66548,24.10979 3.56526,1.31388 9.99464,3.72256 14.2875,5.35261 12.19986,4.63242 13.22285,4.83867 16.98669,3.42464 z m 50.21745,-0.4873 c 6.1017,-2.36716 16.3371,-6.31442 22.225,-8.57103 16.2237,-6.21788 17.5671,-8.17201 17.4064,-25.31941 -0.1104,-11.78099 -0.3536,-12.77562 -4.2212,-17.267 -3.5657,-4.14066 -5.1517,-4.55674 -17.7851,-4.66581 -12.068,-0.10419 -11.3745,-0.38244 -9.4253,3.78164 0.444,0.94847 2.919,7.56968 4.5494,12.17083 0.8767,2.47385 1.7781,4.85448 2.0033,5.29028 0.3345,0.64758 0.3986,1.72321 0.3506,5.88698 -0.032,2.80203 0.017,5.0946 0.1105,5.0946 0.1451,0 4.4425,-1.50672 7.9618,-2.79158 1.0828,-0.39527 1.0828,-0.39527 1.2578,-5.82426 0.1831,-5.67707 0.3883,-6.74153 1.5347,-7.96176 0.4811,-0.51211 3.1245,-1.84758 3.2281,-1.6309 0.022,0.0465 0.01,4.20793 -0.036,9.24761 -0.086,10.37616 1.438,8.62114 -11.5657,13.31933 -3.0559,1.1041 -6.9255,2.52996 -8.599,3.16858 -4.4002,1.67917 -4.0168,1.65528 -5.1121,0.31851 -2.5826,-3.1517 -12.4062,-5.53732 -10.5644,-2.56552 0.5256,0.84808 0.4085,0.99867 -0.9261,1.19139 -7.2257,1.04342 -10.1602,9.6799 -5.1736,15.22627 3.0686,3.41301 7.2719,4.0383 12.7804,1.90125 z m -28.6575,-34.02746 c 1.6802,-2.28552 4.1749,-3.50939 15.6929,-7.69866 2.2556,-0.82038 6.6609,-2.43449 9.7896,-3.5869 3.1287,-1.15241 5.8228,-2.09598 5.9869,-2.09684 3.2988,-0.0171 -2.9898,-13.04074 -7.7709,-16.09344 -4.119,-2.62989 -12.1243,-4.14178 -13.8266,-2.61128 -5.7058,5.13003 -15.6404,5.09751 -22.18106,-0.0726 -1.68543,-1.33226 -1.50344,-1.33963 -6.84465,0.27738 -9.99146,3.02483 -14.89491,8.51572 -14.89491,16.67933 0,1.88617 -1.04614,1.32993 9.80129,5.21144 18.90173,6.76359 19.66063,7.10397 21.95903,9.84914 1.3187,1.57506 1.2389,1.57009 2.2884,0.14244 z m -39.27183,-30.0364 c 13.36969,-3.41939 16.62294,-22.07379 5.22311,-29.94971 -5.08706,-3.51455 -12.52976,-3.46329 -17.92499,0.12345 -15.33033,10.1916 -5.03664,34.36301 12.70188,29.82626 z m 85.89413,-0.37311 c 9.5786,-3.40923 13.9383,-15.2846 8.8328,-24.05938 -8.4295,-14.48746 -30.3694,-8.41256 -30.3694,8.4089 0,11.4459 10.9641,19.41346 21.5366,15.65048 z m -42.7179,-4.93113 c 10.2591,-2.62384 16.8041,-13.64855 14.1841,-23.89257 -3.8465,-15.03979 -22.0817,-20.06031 -32.95493,-9.07319 -14.11081,14.25857 -0.63307,37.92845 18.77083,32.96576 z"
       id="path14-4-0-2" /></g></svg>
