<?xml version="1.0" encoding="UTF-8" standalone="no"?>
<!-- Created with Inkscape (http://www.inkscape.org/) -->

<svg
   width="158.66447mm"
   height="149.67336mm"
   viewBox="0 0 158.66447 149.67336"
   version="1.1"
   id="svg1"
   xml:space="preserve"
   xmlns="http://www.w3.org/2000/svg"
   xmlns:svg="http://www.w3.org/2000/svg"><defs
     id="defs1" /><g
     id="layer1"
     transform="translate(-917.75966,-120.84468)"><g
       id="g3781-8-8"
       transform="translate(267.29215,294.00998)"><rect
         style="opacity:1;fill:#123158;fill-opacity:1;stroke:#123158;stroke-width:2.66648;stroke-dasharray:none;stroke-opacity:1"
         id="rect19-8-0"
         width="155.99797"
         height="147.00687"
         x="651.80078"
         y="-171.83206" /><path
         style="fill:#ffffff;fill-opacity:1"
         d="m 733.45053,-40.718362 c 3.04718,-1.21262 2.7495,0.3798 2.86893,-15.34704 0.10472,-13.78895 0.10472,-13.78895 0.62825,-12.96209 0.28794,0.45478 0.6109,0.82686 0.71769,0.82686 0.26298,0 5.62338,-1.91721 8.882,-3.17675 5.55669,-2.1478 19.7494,-7.40658 19.98934,-7.40658 0.15007,0 0.25129,2.07821 0.25129,5.15938 0,2.83765 0.0893,5.14982 0.19843,5.13816 3.17869,-0.33979 4.44093,-8.40094 2.04866,-13.08344 -0.52261,-1.02292 -1.39886,-3.52315 -1.94723,-5.55606 -1.2108,-4.48867 -0.5896,-4.31346 -6.95007,-1.96032 -25.75951,9.53006 -28.16283,10.71208 -29.97011,14.74024 -0.50469,1.12488 -0.50469,1.12488 -1.23812,-0.1593 -2.31548,-4.05425 -4.52699,-5.32629 -17.6534,-10.1541 -4.75729,-1.7497 -10.72347,-3.94528 -13.25818,-4.87905 -2.5347,-0.93378 -4.69106,-1.60469 -4.79191,-1.49091 -0.10084,0.11377 -0.50108,1.51655 -0.88942,3.11728 -0.80847,3.33256 -1.5327,5.29874 -2.59337,7.04072 -0.74279,1.21988 -0.74279,1.21988 -0.73873,6.08541 0.005,5.52892 -0.0557,5.3245 1.72255,5.84144 1.95855,0.56937 1.88118,0.78187 1.81007,-4.97141 -0.0589,-4.76773 -0.0287,-5.16198 0.38248,-4.99221 1.26479,0.52218 26.04511,10.03418 27.2208,10.44879 1.37432,0.48466 1.37432,0.48466 1.98437,-0.48821 0.61005,-0.97287 0.61005,-0.97287 0.67851,13.1106 0.0782,16.08288 -0.35149,14.195 3.53857,15.5478 2.4119,0.83876 4.1925,0.73124 7.1086,-0.42921 z m -24.28832,-6.57105 c 8.92013,-3.35118 7.13915,-17.47163 -2.20365,-17.47163 -1.26228,0 -1.26228,0 -0.87891,-0.91755 0.63818,-1.52738 0.62635,-1.53501 -2.20513,-1.42128 -3.23755,0.13004 -4.9747,0.8927 -7.21423,3.16727 -1.81434,1.84273 -0.12189,2.18883 -13.4806,-2.75671 -5.31151,-1.96638 -10.3419,-3.71461 -11.17865,-3.88495 -1.52135,-0.30972 -1.52135,-0.30972 -1.52135,-8.87269 0,-5.21645 -0.10616,-8.84219 -0.27163,-9.27742 -0.72511,-1.90718 3.00224,0.10677 4.24038,2.29115 0.63295,1.11667 0.66511,1.38933 0.74606,6.32634 0.0465,2.83766 0.16789,5.24503 0.2697,5.34971 0.20343,0.20917 8.75884,3.38154 9.11951,3.38154 0.12322,0 0.19393,-2.29195 0.15714,-5.09323 -0.0506,-3.85064 0.0194,-5.25351 0.28663,-5.75022 0.19444,-0.36135 1.23898,-2.98073 2.3212,-5.82084 1.08222,-2.84011 2.83089,-7.42602 3.88594,-10.19091 2.34513,-6.145728 3.3598,-5.423958 -7.62508,-5.423958 -20.02261,0 -23.59206,3.58339 -23.387,23.478328 0.16718,16.21921 1.61462,18.19468 17.66548,24.1098 3.56526,1.31388 9.99464,3.72256 14.2875,5.35261 12.19986,4.63242 13.22285,4.83867 16.98669,3.42464 z m 50.21748,-0.4873 c 6.10165,-2.36716 16.33703,-6.31442 22.225,-8.57103 16.22371,-6.21788 17.56711,-8.17201 17.4064,-25.31942 -0.11042,-11.78099 -0.35358,-12.77562 -4.22125,-17.267 -3.56567,-4.140658 -5.15169,-4.556738 -17.78512,-4.665808 -12.06793,-0.10419 -11.37443,-0.38244 -9.42523,3.781638 0.44398,0.94847 2.91897,7.56968 4.54942,12.17083 0.87663,2.47385 1.77809,4.85448 2.00324,5.29028 0.33456,0.64758 0.39863,1.72321 0.35063,5.88698 -0.0323,2.80204 0.0174,5.09461 0.11046,5.09461 0.14516,0 4.44249,-1.50672 7.96187,-2.79158 1.08271,-0.39528 1.08271,-0.39528 1.2578,-5.82427 0.1831,-5.67707 0.38827,-6.74153 1.53461,-7.96176 0.48111,-0.51211 3.1245,-1.84758 3.22818,-1.6309 0.0222,0.0465 0.006,4.20793 -0.0355,9.24761 -0.086,10.37617 1.43797,8.62115 -11.56574,13.31934 -3.05593,1.1041 -6.92546,2.52996 -8.59895,3.16858 -4.40022,1.67917 -4.0168,1.65528 -5.11218,0.31851 -2.58258,-3.1517 -12.40616,-5.53732 -10.56439,-2.56552 0.5256,0.84808 0.40855,0.99867 -0.92604,1.19139 -7.22576,1.04342 -10.16028,9.6799 -5.17362,15.22627 3.06858,3.41301 7.27187,4.0383 12.78039,1.90125 z m -28.65749,-34.02747 c 1.68013,-2.28552 4.17487,-3.50939 15.69291,-7.69866 2.25557,-0.82038 6.66088,-2.43449 9.78958,-3.5869 3.1287,-1.15241 5.82279,-2.09598 5.98688,-2.09684 3.29882,-0.0171 -2.9898,-13.040738 -7.77094,-16.093438 -4.11893,-2.62989 -12.1243,-4.14178 -13.82658,-2.61128 -5.70583,5.13003 -15.64035,5.09751 -22.18105,-0.0726 -1.68543,-1.33226 -1.50344,-1.33963 -6.84465,0.27738 -9.99146,3.02483 -14.89491,8.51572 -14.89491,16.679328 0,1.88617 -1.04614,1.32993 9.80129,5.21144 18.90176,6.76359 19.66066,7.10397 21.95904,9.84914 1.31872,1.57506 1.23894,1.57009 2.28843,0.14244 z m -39.27187,-30.036398 c 13.36969,-3.41939 16.62294,-22.07379 5.22311,-29.9497 -5.08706,-3.51455 -12.52976,-3.46329 -17.92499,0.12345 -15.33033,10.19159 -5.03664,34.363 12.70188,29.82625 z m 85.89411,-0.37311 c 9.57859,-3.40923 13.93832,-15.2846 8.83278,-24.05938 -8.42942,-14.48745 -30.3694,-8.41255 -30.3694,8.4089 0,11.4459 10.96416,19.41346 21.53662,15.65048 z m -42.71786,-4.93113 c 10.25912,-2.62384 16.80407,-13.64855 14.18409,-23.89256 -3.84653,-15.03979 -22.08167,-20.06031 -32.95494,-9.07319 -14.11081,14.25856 -0.63307,37.92844 18.77085,32.96575 z"
         id="path14-7-2" /></g></g></svg>
