<?xml version="1.0" encoding="UTF-8" standalone="no"?>
<!-- Created with Inkscape (http://www.inkscape.org/) -->

<svg
   width="606.42505mm"
   height="149.67336mm"
   viewBox="0 0 606.42505 149.67336"
   version="1.1"
   id="svg1"
   xml:space="preserve"
   xmlns="http://www.w3.org/2000/svg"
   xmlns:svg="http://www.w3.org/2000/svg"><defs
     id="defs1" /><g
     id="layer1"
     transform="translate(-917.75966,-120.84468)"><g
       id="g3781-8-8"
       transform="translate(267.29215,294.00998)"><rect
         style="opacity:1;fill:#123158;fill-opacity:1;stroke:#123158;stroke-width:2.66648;stroke-dasharray:none;stroke-opacity:1"
         id="rect19-8-0"
         width="155.99797"
         height="147.00687"
         x="651.80078"
         y="-171.83206" /><path
         style="fill:#ffffff;fill-opacity:1"
         d="m 733.45053,-40.718362 c 3.04718,-1.21262 2.7495,0.3798 2.86893,-15.34704 0.10472,-13.78895 0.10472,-13.78895 0.62825,-12.96209 0.28794,0.45478 0.6109,0.82686 0.71769,0.82686 0.26298,0 5.62338,-1.91721 8.882,-3.17675 5.55669,-2.1478 19.7494,-7.40658 19.98934,-7.40658 0.15007,0 0.25129,2.07821 0.25129,5.15938 0,2.83765 0.0893,5.14982 0.19843,5.13816 3.17869,-0.33979 4.44093,-8.40094 2.04866,-13.08344 -0.52261,-1.02292 -1.39886,-3.52315 -1.94723,-5.55606 -1.2108,-4.48867 -0.5896,-4.31346 -6.95007,-1.96032 -25.75951,9.53006 -28.16283,10.71208 -29.97011,14.74024 -0.50469,1.12488 -0.50469,1.12488 -1.23812,-0.1593 -2.31548,-4.05425 -4.52699,-5.32629 -17.6534,-10.1541 -4.75729,-1.7497 -10.72347,-3.94528 -13.25818,-4.87905 -2.5347,-0.93378 -4.69106,-1.60469 -4.79191,-1.49091 -0.10084,0.11377 -0.50108,1.51655 -0.88942,3.11728 -0.80847,3.33256 -1.5327,5.29874 -2.59337,7.04072 -0.74279,1.21988 -0.74279,1.21988 -0.73873,6.08541 0.005,5.52892 -0.0557,5.3245 1.72255,5.84144 1.95855,0.56937 1.88118,0.78187 1.81007,-4.97141 -0.0589,-4.76773 -0.0287,-5.16198 0.38248,-4.99221 1.26479,0.52218 26.04511,10.03418 27.2208,10.44879 1.37432,0.48466 1.37432,0.48466 1.98437,-0.48821 0.61005,-0.97287 0.61005,-0.97287 0.67851,13.1106 0.0782,16.08288 -0.35149,14.195 3.53857,15.5478 2.4119,0.83876 4.1925,0.73124 7.1086,-0.42921 z m -24.28832,-6.57105 c 8.92013,-3.35118 7.13915,-17.47163 -2.20365,-17.47163 -1.26228,0 -1.26228,0 -0.87891,-0.91755 0.63818,-1.52738 0.62635,-1.53501 -2.20513,-1.42128 -3.23755,0.13004 -4.9747,0.8927 -7.21423,3.16727 -1.81434,1.84273 -0.12189,2.18883 -13.4806,-2.75671 -5.31151,-1.96638 -10.3419,-3.71461 -11.17865,-3.88495 -1.52135,-0.30972 -1.52135,-0.30972 -1.52135,-8.87269 0,-5.21645 -0.10616,-8.84219 -0.27163,-9.27742 -0.72511,-1.90718 3.00224,0.10677 4.24038,2.29115 0.63295,1.11667 0.66511,1.38933 0.74606,6.32634 0.0465,2.83766 0.16789,5.24503 0.2697,5.34971 0.20343,0.20917 8.75884,3.38154 9.11951,3.38154 0.12322,0 0.19393,-2.29195 0.15714,-5.09323 -0.0506,-3.85064 0.0194,-5.25351 0.28663,-5.75022 0.19444,-0.36135 1.23898,-2.98073 2.3212,-5.82084 1.08222,-2.84011 2.83089,-7.42602 3.88594,-10.19091 2.34513,-6.145728 3.3598,-5.423958 -7.62508,-5.423958 -20.02261,0 -23.59206,3.58339 -23.387,23.478328 0.16718,16.21921 1.61462,18.19468 17.66548,24.1098 3.56526,1.31388 9.99464,3.72256 14.2875,5.35261 12.19986,4.63242 13.22285,4.83867 16.98669,3.42464 z m 50.21748,-0.4873 c 6.10165,-2.36716 16.33703,-6.31442 22.225,-8.57103 16.22371,-6.21788 17.56711,-8.17201 17.4064,-25.31942 -0.11042,-11.78099 -0.35358,-12.77562 -4.22125,-17.267 -3.56567,-4.140658 -5.15169,-4.556738 -17.78512,-4.665808 -12.06793,-0.10419 -11.37443,-0.38244 -9.42523,3.781638 0.44398,0.94847 2.91897,7.56968 4.54942,12.17083 0.87663,2.47385 1.77809,4.85448 2.00324,5.29028 0.33456,0.64758 0.39863,1.72321 0.35063,5.88698 -0.0323,2.80204 0.0174,5.09461 0.11046,5.09461 0.14516,0 4.44249,-1.50672 7.96187,-2.79158 1.08271,-0.39528 1.08271,-0.39528 1.2578,-5.82427 0.1831,-5.67707 0.38827,-6.74153 1.53461,-7.96176 0.48111,-0.51211 3.1245,-1.84758 3.22818,-1.6309 0.0222,0.0465 0.006,4.20793 -0.0355,9.24761 -0.086,10.37617 1.43797,8.62115 -11.56574,13.31934 -3.05593,1.1041 -6.92546,2.52996 -8.59895,3.16858 -4.40022,1.67917 -4.0168,1.65528 -5.11218,0.31851 -2.58258,-3.1517 -12.40616,-5.53732 -10.56439,-2.56552 0.5256,0.84808 0.40855,0.99867 -0.92604,1.19139 -7.22576,1.04342 -10.16028,9.6799 -5.17362,15.22627 3.06858,3.41301 7.27187,4.0383 12.78039,1.90125 z m -28.65749,-34.02747 c 1.68013,-2.28552 4.17487,-3.50939 15.69291,-7.69866 2.25557,-0.82038 6.66088,-2.43449 9.78958,-3.5869 3.1287,-1.15241 5.82279,-2.09598 5.98688,-2.09684 3.29882,-0.0171 -2.9898,-13.040738 -7.77094,-16.093438 -4.11893,-2.62989 -12.1243,-4.14178 -13.82658,-2.61128 -5.70583,5.13003 -15.64035,5.09751 -22.18105,-0.0726 -1.68543,-1.33226 -1.50344,-1.33963 -6.84465,0.27738 -9.99146,3.02483 -14.89491,8.51572 -14.89491,16.679328 0,1.88617 -1.04614,1.32993 9.80129,5.21144 18.90176,6.76359 19.66066,7.10397 21.95904,9.84914 1.31872,1.57506 1.23894,1.57009 2.28843,0.14244 z m -39.27187,-30.036398 c 13.36969,-3.41939 16.62294,-22.07379 5.22311,-29.9497 -5.08706,-3.51455 -12.52976,-3.46329 -17.92499,0.12345 -15.33033,10.19159 -5.03664,34.363 12.70188,29.82625 z m 85.89411,-0.37311 c 9.57859,-3.40923 13.93832,-15.2846 8.83278,-24.05938 -8.42942,-14.48745 -30.3694,-8.41255 -30.3694,8.4089 0,11.4459 10.96416,19.41346 21.53662,15.65048 z m -42.71786,-4.93113 c 10.25912,-2.62384 16.80407,-13.64855 14.18409,-23.89256 -3.84653,-15.03979 -22.08167,-20.06031 -32.95494,-9.07319 -14.11081,14.25856 -0.63307,37.92844 18.77085,32.96575 z"
         id="path14-7-2" /></g><path
       d="m 1124.1851,232.72865 v -32.67612 q 0,-6.47052 3.1275,-11.86262 3.1274,-5.3921 8.9508,-8.51952 5.9314,-3.23526 14.2352,-3.23526 3.9901,0 7.3333,0.97058 3.4509,0.86273 6.3626,2.5882 2.9118,1.72548 5.0686,4.098 h 0.1078 q 2.2647,-2.37252 5.1765,-4.098 2.9117,-1.72547 6.3626,-2.5882 3.451,-0.97058 7.4411,-0.97058 8.3039,0 14.1273,3.23526 5.9313,3.12742 9.0588,8.51952 3.1274,5.3921 3.1274,11.86262 v 32.67612 h -14.7744 v -32.67612 q 0,-3.01958 -1.6176,-5.49995 -1.5098,-2.48036 -4.098,-3.99015 -2.5882,-1.50979 -5.8235,-1.50979 -3.1274,0 -5.8234,1.50979 -2.5882,1.50979 -4.2059,3.99015 -1.5098,2.48037 -1.5098,5.49995 v 32.67612 h -14.7743 v -32.67612 q 0,-3.01958 -1.6176,-5.49995 -1.5098,-2.48036 -4.098,-3.99015 -2.5882,-1.50979 -5.8235,-1.50979 -3.1274,0 -5.8235,1.50979 -2.5882,1.50979 -4.2058,3.99015 -1.5098,2.48037 -1.5098,5.49995 v 32.67612 z m 133.8994,0 q -9.3823,0 -16.392,-3.55878 -6.9019,-3.66663 -10.7842,-9.92147 -3.7745,-6.25483 -3.7745,-14.01946 0,-8.7352 3.5588,-15.20572 3.5588,-6.47052 9.7058,-10.02931 6.147,-3.55878 13.9116,-3.55878 9.2744,0 14.99,3.88231 5.8235,3.88231 8.5196,10.46067 2.696,6.47052 2.696,14.45083 0,1.07842 -0.1078,2.58821 -0.1079,1.40195 -0.3236,2.15684 h -37.2055 q 0.8628,3.3431 2.9118,5.60778 2.1568,2.26469 5.2842,3.45095 3.2353,1.07842 7.2255,1.07842 h 15.3135 v 12.61751 z m -15.3136,-32.67612 h 22.9704 q -0.2157,-2.049 -0.7549,-3.77447 -0.5393,-1.83332 -1.5098,-3.23526 -0.9706,-1.40195 -2.2647,-2.37253 -1.2941,-0.97058 -3.0196,-1.50979 -1.7255,-0.53921 -3.7745,-0.53921 -2.696,0 -4.8528,0.97058 -2.049,0.97058 -3.451,2.58821 -1.4019,1.61763 -2.2647,3.66663 -0.7549,2.049 -1.0784,4.20584 z m 49.8904,32.67612 v -32.67612 q 0,-6.47052 3.1275,-11.86262 3.1274,-5.3921 8.9508,-8.51952 5.9314,-3.23526 14.2352,-3.23526 3.9901,0 7.3332,0.97058 3.451,0.86273 6.3627,2.5882 2.9118,1.72548 5.0686,4.098 h 0.1078 q 2.2647,-2.37252 5.1765,-4.098 2.9117,-1.72547 6.3626,-2.5882 3.451,-0.97058 7.4411,-0.97058 8.3039,0 14.1273,3.23526 5.9313,3.12742 9.0588,8.51952 3.1274,5.3921 3.1274,11.86262 v 32.67612 h -14.7744 v -32.67612 q 0,-3.01958 -1.6176,-5.49995 -1.5098,-2.48036 -4.098,-3.99015 -2.5882,-1.50979 -5.8235,-1.50979 -3.1274,0 -5.8234,1.50979 -2.5882,1.50979 -4.2059,3.99015 -1.5098,2.48037 -1.5098,5.49995 v 32.67612 h -14.7743 v -32.67612 q 0,-3.01958 -1.6176,-5.49995 -1.5098,-2.48036 -4.098,-3.99015 -2.5882,-1.50979 -5.8235,-1.50979 -3.1274,0 -5.8235,1.50979 -2.5882,1.50979 -4.2058,3.99015 -1.5098,2.48037 -1.5098,5.49995 v 32.67612 z m 132.6053,1.29411 q -8.5196,0 -15.2058,-3.77447 -6.6862,-3.88232 -10.5685,-10.35284 -3.8823,-6.57836 -3.8823,-14.66651 0,-8.08815 3.8823,-14.55867 3.8823,-6.57836 10.5685,-10.35283 6.6862,-3.88231 15.2058,-3.88231 8.5195,0 15.2057,3.88231 6.6862,3.77447 10.5685,10.35283 3.8823,6.47052 3.8823,14.55867 0,8.08815 -3.8823,14.66651 -3.8823,6.47052 -10.5685,10.35284 -6.6862,3.77447 -15.2057,3.77447 z m 0,-12.61752 q 4.5293,0 7.7646,-2.15684 3.3431,-2.15684 5.0686,-5.82347 1.8333,-3.66662 1.8333,-8.19599 0,-4.52936 -1.8333,-8.19599 -1.7255,-3.66663 -5.0686,-5.82347 -3.2353,-2.15684 -7.7646,-2.15684 -4.5294,0 -7.8725,2.15684 -3.2353,2.15684 -5.0686,5.82347 -1.7255,3.66663 -1.7255,8.19599 0,4.52937 1.7255,8.19599 1.8333,3.66663 5.0686,5.82347 3.3431,2.15684 7.8725,2.15684 z m 41.5866,11.32341 v -39.36233 q 0,-7.33325 4.098,-11.43125 4.2059,-4.20584 11.5391,-4.20584 h 15.2058 v 12.61752 h -12.6176 q -1.4019,0 -2.4803,0.97057 -0.9706,0.97058 -0.9706,2.48037 v 38.93096 z m 40.6161,0 v -54.99942 h 14.8822 v 54.99942 z m 7.4411,-61.57778 q -3.7744,0 -6.5783,-2.69605 -2.6961,-2.80389 -2.6961,-6.57836 0,-3.77447 2.6961,-6.47052 2.8039,-2.8039 6.5783,-2.8039 3.7745,0 6.4705,2.8039 2.8039,2.69605 2.8039,6.47052 0,3.77447 -2.8039,6.57836 -2.696,2.69605 -6.4705,2.69605 z"
       id="text1"
       style="font-weight:600;font-size:107.842px;font-family:MuseoModerno;-inkscape-font-specification:'MuseoModerno Semi-Bold';letter-spacing:1.68504px;fill:#1a3055;stroke-width:0.561676"
       aria-label="memori" /></g></svg>
